<mxfile host="app.diagrams.net" agent="Mozilla/5.0 (Windows NT 10.0; Win64; x64) AppleWebKit/537.36 (KHTML, like Gecko) Chrome/136.0.0.0 Safari/537.36" version="26.2.14">
  <diagram name="Page-1" id="nX33uT9CjWPlNySIcMb7">
    <mxGraphModel dx="1158" dy="731" grid="1" gridSize="10" guides="1" tooltips="1" connect="1" arrows="1" fold="1" page="1" pageScale="1" pageWidth="850" pageHeight="1100" math="0" shadow="0">
      <root>
        <mxCell id="0" />
        <mxCell id="1" parent="0" />
        <mxCell id="K-H6DtJF6WlzqWcMHnNN-9" value="" style="rounded=0;whiteSpace=wrap;html=1;" vertex="1" parent="1">
          <mxGeometry x="265.75" y="360" width="370" height="300" as="geometry" />
        </mxCell>
        <mxCell id="K-H6DtJF6WlzqWcMHnNN-5" value="MCP" style="rounded=0;whiteSpace=wrap;html=1;" vertex="1" parent="1">
          <mxGeometry x="365.75" y="580" width="240" height="60" as="geometry" />
        </mxCell>
        <mxCell id="K-H6DtJF6WlzqWcMHnNN-6" value="Reactive Functions" style="rounded=0;whiteSpace=wrap;html=1;" vertex="1" parent="1">
          <mxGeometry x="365.75" y="500" width="240" height="60" as="geometry" />
        </mxCell>
        <mxCell id="K-H6DtJF6WlzqWcMHnNN-7" value="Event-driven" style="rounded=0;whiteSpace=wrap;html=1;" vertex="1" parent="1">
          <mxGeometry x="365.75" y="420" width="240" height="60" as="geometry" />
        </mxCell>
        <mxCell id="K-H6DtJF6WlzqWcMHnNN-10" value="&lt;font style=&quot;color: light-dark(rgb(0, 0, 0), rgb(255, 179, 102));&quot;&gt;Supervised Agentic AI Platform&lt;/font&gt;" style="text;html=1;align=center;verticalAlign=middle;whiteSpace=wrap;rounded=0;" vertex="1" parent="1">
          <mxGeometry x="445.75" y="360" width="190" height="30" as="geometry" />
        </mxCell>
        <mxCell id="K-H6DtJF6WlzqWcMHnNN-11" value="API" style="rounded=0;whiteSpace=wrap;html=1;rotation=-90;" vertex="1" parent="1">
          <mxGeometry x="214" y="500.25" width="217.5" height="60" as="geometry" />
        </mxCell>
        <mxCell id="K-H6DtJF6WlzqWcMHnNN-12" value="Communication" style="rounded=0;whiteSpace=wrap;html=1;" vertex="1" parent="1">
          <mxGeometry x="265.75" y="680" width="370" height="60" as="geometry" />
        </mxCell>
      </root>
    </mxGraphModel>
  </diagram>
</mxfile>
